<mxfile host="app.diagrams.net" agent="Mozilla/5.0 (Windows NT 10.0; Win64; x64) AppleWebKit/537.36 (KHTML, like Gecko) Chrome/131.0.0.0 Safari/537.36 Edg/131.0.0.0" version="25.0.3">
  <diagram name="Page-1" id="q3uFHKvuZou4gTG6mtTF">
    <mxGraphModel dx="1042" dy="535" grid="1" gridSize="10" guides="1" tooltips="1" connect="1" arrows="1" fold="1" page="1" pageScale="1" pageWidth="850" pageHeight="1100" math="0" shadow="0">
      <root>
        <mxCell id="0" />
        <mxCell id="1" parent="0" />
        <mxCell id="n2ZgGeO-Q6lhi_R1fb4x-1" value="" style="ellipse;whiteSpace=wrap;html=1;fillColor=#000033;" vertex="1" parent="1">
          <mxGeometry x="220" width="100" height="70" as="geometry" />
        </mxCell>
        <mxCell id="n2ZgGeO-Q6lhi_R1fb4x-2" value="&lt;font color=&quot;#ffffff&quot;&gt;Start&lt;/font&gt;" style="text;strokeColor=none;align=center;fillColor=none;html=1;verticalAlign=middle;whiteSpace=wrap;rounded=0;" vertex="1" parent="1">
          <mxGeometry x="240" y="20" width="60" height="30" as="geometry" />
        </mxCell>
        <mxCell id="n2ZgGeO-Q6lhi_R1fb4x-3" value="" style="ellipse;whiteSpace=wrap;html=1;fillColor=#000033;" vertex="1" parent="1">
          <mxGeometry x="210" y="370" width="100" height="70" as="geometry" />
        </mxCell>
        <mxCell id="n2ZgGeO-Q6lhi_R1fb4x-4" value="&lt;font color=&quot;#ffffff&quot;&gt;End&lt;/font&gt;" style="text;strokeColor=none;align=center;fillColor=none;html=1;verticalAlign=middle;whiteSpace=wrap;rounded=0;" vertex="1" parent="1">
          <mxGeometry x="230" y="390" width="60" height="30" as="geometry" />
        </mxCell>
        <mxCell id="n2ZgGeO-Q6lhi_R1fb4x-5" value="" style="shape=parallelogram;perimeter=parallelogramPerimeter;whiteSpace=wrap;html=1;fixedSize=1;fillColor=#000000;" vertex="1" parent="1">
          <mxGeometry x="200" y="110" width="120" height="60" as="geometry" />
        </mxCell>
        <mxCell id="n2ZgGeO-Q6lhi_R1fb4x-6" value="&lt;font color=&quot;#ffffff&quot;&gt;Nháº­p a ,b&lt;/font&gt;" style="text;strokeColor=none;align=center;fillColor=none;html=1;verticalAlign=middle;whiteSpace=wrap;rounded=0;" vertex="1" parent="1">
          <mxGeometry x="230" y="125" width="60" height="30" as="geometry" />
        </mxCell>
        <mxCell id="n2ZgGeO-Q6lhi_R1fb4x-7" value="" style="whiteSpace=wrap;html=1;aspect=fixed;fillColor=#000000;" vertex="1" parent="1">
          <mxGeometry x="210" y="240" width="80" height="80" as="geometry" />
        </mxCell>
        <mxCell id="n2ZgGeO-Q6lhi_R1fb4x-8" value="&lt;font color=&quot;#ffffff&quot;&gt;In ra x = (-b)/a&lt;/font&gt;" style="text;strokeColor=none;align=center;fillColor=none;html=1;verticalAlign=middle;whiteSpace=wrap;rounded=0;" vertex="1" parent="1">
          <mxGeometry x="210" y="240" width="80" height="80" as="geometry" />
        </mxCell>
        <mxCell id="n2ZgGeO-Q6lhi_R1fb4x-9" style="edgeStyle=orthogonalEdgeStyle;rounded=0;orthogonalLoop=1;jettySize=auto;html=1;entryX=0.583;entryY=-0.067;entryDx=0;entryDy=0;entryPerimeter=0;" edge="1" parent="1" source="n2ZgGeO-Q6lhi_R1fb4x-2" target="n2ZgGeO-Q6lhi_R1fb4x-5">
          <mxGeometry relative="1" as="geometry" />
        </mxCell>
        <mxCell id="n2ZgGeO-Q6lhi_R1fb4x-10" style="edgeStyle=orthogonalEdgeStyle;rounded=0;orthogonalLoop=1;jettySize=auto;html=1;entryX=0.62;entryY=-0.015;entryDx=0;entryDy=0;entryPerimeter=0;" edge="1" parent="1" source="n2ZgGeO-Q6lhi_R1fb4x-6" target="n2ZgGeO-Q6lhi_R1fb4x-8">
          <mxGeometry relative="1" as="geometry" />
        </mxCell>
        <mxCell id="n2ZgGeO-Q6lhi_R1fb4x-11" style="edgeStyle=orthogonalEdgeStyle;rounded=0;orthogonalLoop=1;jettySize=auto;html=1;entryX=0.4;entryY=0.046;entryDx=0;entryDy=0;entryPerimeter=0;" edge="1" parent="1" source="n2ZgGeO-Q6lhi_R1fb4x-8" target="n2ZgGeO-Q6lhi_R1fb4x-3">
          <mxGeometry relative="1" as="geometry" />
        </mxCell>
      </root>
    </mxGraphModel>
  </diagram>
</mxfile>
